<?xml version="1.0" encoding="iso-8859-1"?>
<!-- Generator: Adobe Illustrator 19.0.0, SVG Export Plug-In . SVG Version: 6.00 Build 0)  -->
<svg version="1.1" id="Capa_1" xmlns="http://www.w3.org/2000/svg" xmlns:xlink="http://www.w3.org/1999/xlink" x="0px" y="0px"
	 viewBox="0 0 512 512" style="enable-background:new 0 0 512 512;" xml:space="preserve">
<polygon style="fill:#B3D8F4;" points="332.445,7.5 84.824,7.5 84.824,504.5 427.172,504.5 427.172,105.032 "/>
<g>
	<polygon style="fill:#78B9EB;" points="348.114,310.081 327.894,289.862 378.635,239.121 327.894,188.38 348.114,168.16 
		419.074,239.121 	"/>
	<polygon style="fill:#78B9EB;" points="227.637,310.081 156.677,239.121 227.637,168.16 247.857,188.38 197.116,239.121 
		247.857,289.862 	"/>
	
		<rect x="273.584" y="178.262" transform="matrix(-0.9063 -0.4226 0.4226 -0.9063 447.7419 577.4818)" style="fill:#78B9EB;" width="28.595" height="121.698"/>
	<rect x="151.48" y="88.14" style="fill:#78B9EB;" width="34.859" height="34.859"/>
	<rect x="207.92" y="88.14" style="fill:#78B9EB;" width="34.859" height="34.859"/>
	<polygon style="fill:#78B9EB;" points="332.445,7.5 332.445,105.571 427.172,105.571 	"/>
</g>
<g>
	<rect x="121.48" y="88.14" style="fill:#FFDE55;" width="34.859" height="34.859"/>
	<rect x="177.92" y="88.14" style="fill:#FFDE55;" width="34.859" height="34.859"/>
</g>
<g>
	<polygon style="fill:#00E2DD;" points="318.114,310.081 297.894,289.862 348.635,239.121 297.894,188.38 318.114,168.16 
		389.074,239.121 	"/>
	<polygon style="fill:#00E2DD;" points="197.637,310.081 126.677,239.121 197.637,168.16 217.857,188.38 167.116,239.121 
		217.857,289.862 	"/>
	
		<rect x="243.585" y="178.264" transform="matrix(-0.9063 -0.4226 0.4226 -0.9063 390.5536 564.8079)" style="fill:#00E2DD;" width="28.595" height="121.698"/>
</g>
<g>
	<rect x="121.48" y="88.14" style="fill:#FFD422;" width="18.973" height="34.859"/>
	<rect x="177.92" y="88.14" style="fill:#FFD422;" width="18.973" height="34.859"/>
</g>
<rect x="84.82" y="7.5" style="fill:#78B9EB;" width="30" height="497"/>
<g>
	<polygon style="fill:#0EB1B6;" points="144.677,239.121 206.637,177.16 197.637,168.16 126.677,239.121 197.637,310.081 
		206.638,301.081 	"/>
	<polygon style="fill:#0EB1B6;" points="237.201,288.228 285.419,184.823 270.634,177.929 223.978,277.983 235.857,289.862 
		231.675,294.044 245.117,300.312 248.332,293.418 	"/>
	<polygon style="fill:#0EB1B6;" points="315.894,289.862 366.635,239.121 315.894,188.38 327.114,177.16 318.114,168.16 
		302.077,184.197 314.55,190.013 309.773,200.258 348.635,239.121 297.894,289.862 318.114,310.081 327.114,301.081 	"/>
</g>
<g>
	<path style="fill:#1D1D1F;" d="M113.981,130.5h49.858V80.642h-49.858V130.5z M128.981,95.642h19.858V115.5h-19.858V95.642z"/>
	<path style="fill:#1D1D1F;" d="M170.421,130.5h49.859V80.642h-49.859V130.5L170.421,130.5z M185.421,95.642h19.859V115.5h-19.859
		V95.642z"/>
	
		<rect x="341.996" y="438.319" transform="matrix(-0.9997 0.0236 -0.0236 -0.9997 709.4161 883.2661)" style="fill:#1D1D1F;" width="15" height="15"/>
	
		<rect x="391.976" y="437.147" transform="matrix(-0.9997 0.0236 -0.0236 -0.9997 809.3334 879.7426)" style="fill:#1D1D1F;" width="15" height="15"/>
	
		<rect x="366.97" y="437.74" transform="matrix(-0.9997 0.0235 -0.0235 -0.9997 759.3 881.5571)" style="fill:#1D1D1F;" width="15" height="15"/>
	<rect x="366.99" y="468.02" style="fill:#1D1D1F;" width="15" height="15"/>
	<rect x="391.99" y="468.02" style="fill:#1D1D1F;" width="15" height="15"/>
	<rect x="341.99" y="468.02" style="fill:#1D1D1F;" width="15" height="15"/>
	<polygon style="fill:#1D1D1F;" points="419.675,497 302.205,497 302.155,511.95 434.675,512 434.675,247.47 419.675,247.42 	"/>
	<path style="fill:#1D1D1F;" d="M335.635,0.02L77.325,0v141.88l15,0.05V15h232.62v97.479l94.73,0.046V232.47l15,0.05V101.99
		L335.635,0.02z M339.945,25.985l69.492,71.544h-69.492V25.985z"/>
	<polygon style="fill:#1D1D1F;" points="92.325,156.88 77.375,156.83 77.325,156.88 77.325,511.95 287.255,512 287.255,497 
		92.325,497 	"/>
</g>
<g>
	<rect x="171.48" y="33.5" style="fill:#FFFFFF;" width="134.54" height="15"/>
	<rect x="121.48" y="33.5" style="fill:#FFFFFF;" width="15" height="15"/>
	<rect x="146.48" y="33.5" style="fill:#FFFFFF;" width="15" height="15"/>
</g>
<g>
	<polygon style="fill:#1D1D1F;" points="391.175,374.67 406.175,374.72 406.175,325.67 391.175,325.62 	"/>
	<polygon style="fill:#1D1D1F;" points="332.445,124.609 332.395,139.56 381.465,139.609 381.465,124.609 	"/>
	<path style="fill:#1D1D1F;" d="M197.637,320.688l23.351-23.351l27.756,12.943l51.023-109.42l38.261,38.261l-50.741,50.74
		l30.826,30.826l81.566-81.566l-81.566-81.567l-23.351,23.351l-27.756-12.943l-51.023,109.42l-38.262-38.26l50.741-50.741
		l-30.826-30.826l-81.566,81.567L197.637,320.688z M318.114,178.767l60.354,60.354l-60.354,60.354l-9.613-9.613l50.741-50.74
		l-50.741-50.741L318.114,178.767z M274.262,187.896l12.321,5.746l-45.094,96.704l-12.321-5.746L274.262,187.896z M207.251,188.38
		l-50.742,50.741l50.742,50.74l-9.613,9.613l-60.354-60.354l60.354-60.354L207.251,188.38z"/>
	<rect x="136.11" y="336.24" style="fill:#1D1D1F;" width="15" height="15"/>
	<rect x="161.11" y="336.24" style="fill:#1D1D1F;" width="15" height="15"/>
	<rect x="111.11" y="336.24" style="fill:#1D1D1F;" width="15" height="15"/>
	<rect x="136.11" y="469.76" style="fill:#1D1D1F;" width="15" height="15"/>
	<rect x="111.11" y="469.76" style="fill:#1D1D1F;" width="15" height="15"/>
	<rect x="161.11" y="469.76" style="fill:#1D1D1F;" width="15" height="15"/>
	<rect x="180.81" y="369.62" style="fill:#1D1D1F;" width="90.78" height="15"/>
	<rect x="155.81" y="369.62" style="fill:#1D1D1F;" width="15" height="15"/>
	<rect x="130.81" y="369.62" style="fill:#1D1D1F;" width="15" height="15"/>
	<rect x="130.81" y="436.38" style="fill:#1D1D1F;" width="15" height="15"/>
	<rect x="180.81" y="436.38" style="fill:#1D1D1F;" width="90.78" height="15"/>
	<rect x="155.81" y="436.38" style="fill:#1D1D1F;" width="15" height="15"/>
	<rect x="217.61" y="403" style="fill:#1D1D1F;" width="107" height="15"/>
</g>
<g>
</g>
<g>
</g>
<g>
</g>
<g>
</g>
<g>
</g>
<g>
</g>
<g>
</g>
<g>
</g>
<g>
</g>
<g>
</g>
<g>
</g>
<g>
</g>
<g>
</g>
<g>
</g>
<g>
</g>
</svg>
