<?xml version="1.0" encoding="iso-8859-1"?>
<!-- Generator: Adobe Illustrator 19.0.0, SVG Export Plug-In . SVG Version: 6.00 Build 0)  -->
<svg version="1.1" id="Capa_1" xmlns="http://www.w3.org/2000/svg" xmlns:xlink="http://www.w3.org/1999/xlink" x="0px" y="0px"
	 viewBox="0 0 512 512" style="enable-background:new 0 0 512 512;" xml:space="preserve">
<polygon style="fill:#B3D8F4;" points="323.998,299.484 323.998,258.5 283.015,258.5 283.015,217.516 242.031,217.516 
	242.031,176.533 37.015,176.533 37.015,504.5 364.982,504.5 364.982,299.484 "/>
<g>
	<rect x="94.21" y="308.9" style="fill:#78B9EB;" width="40.984" height="40.984"/>
	<rect x="94.21" y="376.51" style="fill:#78B9EB;" width="40.984" height="40.984"/>
	<path style="fill:#78B9EB;" d="M278.903,316.192c0-26.457-21.448-47.905-47.905-47.905s-47.905,21.448-47.905,47.905
		c0,16.705,8.556,31.406,21.52,39.979V430.5h52.764v-74.325C270.345,347.603,278.903,332.9,278.903,316.192z"/>
</g>
<g>
	<rect x="434" y="76.53" style="fill:#B3D8F4;" width="40.984" height="40.984"/>
	<rect x="353.01" y="96.53" style="fill:#B3D8F4;" width="40.984" height="40.984"/>
</g>
<g>
	<rect x="282.03" y="126.53" style="fill:#00E2DD;" width="40.984" height="40.984"/>
	<rect x="404" y="159.02" style="fill:#00E2DD;" width="40.984" height="40.984"/>
</g>
<rect x="333.01" y="187.53" style="fill:#B3D8F4;" width="40.984" height="40.984"/>
<g>
	<rect x="64.21" y="308.9" style="fill:#FFDE55;" width="40.984" height="40.984"/>
	<rect x="64.21" y="376.51" style="fill:#FFDE55;" width="40.984" height="40.984"/>
</g>
<rect x="324" y="258.52" style="fill:#00E2DD;" width="40.984" height="40.984"/>
<polygon style="fill:#FFDE55;" points="130.968,176.533 85.968,176.533 85.968,7.5 316.029,7.5 316.029,76 271.029,76 271.029,52.5 
	130.968,52.5 "/>
<path style="fill:#57A4FF;" d="M248.903,316.192c0-26.457-21.448-47.905-47.905-47.905s-47.905,21.448-47.905,47.905
	c0,16.705,8.556,31.406,21.52,39.979V430.5h52.764v-74.325C240.345,347.603,248.903,332.9,248.903,316.192z"/>
<g>
	<rect x="37.02" y="176.53" style="fill:#78B9EB;" width="30" height="327.97"/>
	<rect x="434" y="76.53" style="fill:#78B9EB;" width="20" height="40.984"/>
	<rect x="353.01" y="96.53" style="fill:#78B9EB;" width="20" height="40.984"/>
</g>
<g>
	<rect x="282.03" y="126.53" style="fill:#0EB1B6;" width="20" height="40.984"/>
	<rect x="404" y="159.02" style="fill:#0EB1B6;" width="20" height="40.984"/>
</g>
<rect x="333.01" y="187.53" style="fill:#78B9EB;" width="20" height="40.984"/>
<g>
	<rect x="64.21" y="308.9" style="fill:#FFD422;" width="20" height="40.984"/>
	<rect x="64.21" y="376.51" style="fill:#FFD422;" width="20" height="40.984"/>
</g>
<rect x="324" y="258.52" style="fill:#0EB1B6;" width="20" height="40.984"/>
<g>
	<rect x="85.968" y="7.5" style="fill:#FFD422;" width="30" height="169.03"/>
	<rect x="271.03" y="52.5" style="fill:#FFD422;" width="30" height="23.5"/>
</g>
<path style="fill:#006DF0;" d="M183.094,316.192c0-21.216,13.798-39.199,32.905-45.496c-4.72-1.556-9.759-2.409-15-2.409
	c-26.457,0-47.905,21.448-47.905,47.905c0,16.705,8.556,31.406,21.52,39.979V430.5h30v-74.328
	C191.65,347.598,183.094,332.898,183.094,316.192z"/>
<g>
	<rect x="133.89" y="469.5" style="fill:#1D1D1F;" width="15" height="15"/>
	<rect x="83.89" y="469.5" style="fill:#1D1D1F;" width="15" height="15"/>
	<rect x="58.89" y="469.5" style="fill:#1D1D1F;" width="15" height="15"/>
	<rect x="108.89" y="469.5" style="fill:#1D1D1F;" width="15" height="15"/>
	<path style="fill:#1D1D1F;" d="M426.499,69.033v55.983h55.983V69.033H426.499z M467.482,110.016h-25.983V84.033h25.983V110.016z"/>
	<path style="fill:#1D1D1F;" d="M401.499,89.033h-55.983v55.983h55.983V89.033z M386.499,130.016h-25.983v-25.983h25.983V130.016z"
		/>
	<path style="fill:#1D1D1F;" d="M274.531,175.017h55.984v-55.984h-55.984V175.017z M289.531,134.033h25.984v25.984h-25.984V134.033z
		"/>
	<path style="fill:#1D1D1F;" d="M396.499,207.5h55.983v-55.983h-55.983V207.5z M411.499,166.517h25.983V192.5h-25.983V166.517z"/>
	<path style="fill:#1D1D1F;" d="M325.515,236.017h55.983v-55.984h-55.983V236.017z M340.515,195.033h25.983v25.984h-25.983V195.033z
		"/>
	<path style="fill:#1D1D1F;" d="M56.709,357.385h55.983v-55.983H56.709V357.385z M71.709,316.402h25.983v25.983H71.709V316.402z"/>
	<path style="fill:#1D1D1F;" d="M112.693,369.008H56.709v55.983h55.983L112.693,369.008L112.693,369.008z M97.693,409.992H71.709
		v-25.983h25.983L97.693,409.992L97.693,409.992z"/>
	<polygon style="fill:#1D1D1F;" points="44.518,238.6 29.518,238.55 29.518,511.95 257.168,512 257.168,497 44.518,497 	"/>
	<path style="fill:#1D1D1F;" d="M331.499,251h-40.98v-40.98H249.53v-40.94l-111.061-0.025V144.35l-15-0.05v24.73h-30V15h75.47
		l0.051-14.95L78.468,0v169.041l-48.95-0.011v54.57l15,0.05v-39.62h190.011v40.99h40.989V266h40.98v41h40.979v190h-85.37
		l-0.05,14.95l100.42,0.05V307h0.004v-55.983h-40.983L331.499,251L331.499,251z M357.482,266.017v25.963h-25.983v-25.963H357.482z"
		/>
	<polygon style="fill:#1D1D1F;" points="308.529,68.5 278.529,68.5 278.529,45.05 123.468,45 123.468,129.35 138.468,129.4 
		138.468,60 263.529,60 263.529,83.5 323.478,83.5 323.529,0 183.938,0 183.888,15 308.529,15 	"/>
	<path style="fill:#1D1D1F;" d="M179.428,265.14c-6.59,2.79-12.52,6.79-17.61,11.88c-5.079,5.08-9.079,11.01-11.869,17.61
		c-2.891,6.83-4.351,14.08-4.351,21.56c0,8.72,1.97,17.07,5.86,24.82c3.7,7.38,9.109,13.95,15.649,19.01v77.93l67.771,0.05v-77.97
		c6.54-5.06,11.95-11.64,15.66-19.02c3.89-7.75,5.859-16.1,5.859-24.82c0.011-16.5-7.26-32.01-19.939-42.57l-0.04-0.03l-9.601,11.52
		l0.04,0.03c9.24,7.72,14.54,19.04,14.551,31.05c0,13.59-6.79,26.2-18.17,33.73l-3.36,2.22V423h-37.771v-70.83l-3.359-2.25
		c-11.37-7.54-18.16-20.14-18.16-33.73c0.01-10.78,4.21-20.93,11.84-28.57c7.64-7.63,17.79-11.83,28.57-11.83
		c5.21,0,10.27,0.97,15.04,2.89l0.05,0.02l5.59-13.92l-0.05-0.02c-6.561-2.64-13.5-3.97-20.61-3.97h-0.02
		C193.518,260.79,186.258,262.25,179.428,265.14z"/>
</g>
<g>
	<path style="fill:#FFFFFF;" d="M269.082,273.236l-12.764,7.879c2.354,3.814,4.313,7.88,5.825,12.084l14.115-5.073
		C274.397,282.944,271.982,277.935,269.082,273.236z"/>
	<path style="fill:#FFFFFF;" d="M279.261,298.75l-14.684,3.067c0.911,4.36,1.373,8.854,1.373,13.355h15
		C280.951,309.642,280.382,304.116,279.261,298.75z"/>
	<path style="fill:#FFFFFF;" d="M251.097,273.832l11.564-9.554c-15.258-18.466-37.732-29.057-61.663-29.058v15
		C220.44,250.221,238.7,258.827,251.097,273.832z"/>
	<rect x="51.999" y="190.5" style="fill:#FFFFFF;" width="15" height="15"/>
	<rect x="76.999" y="190.5" style="fill:#FFFFFF;" width="15" height="15"/>
	<rect x="102" y="190.5" style="fill:#FFFFFF;" width="72" height="15"/>
	<rect x="125.75" y="23" style="fill:#FFFFFF;" width="100.25" height="15"/>
	<rect x="236" y="23" style="fill:#FFFFFF;" width="15" height="15"/>
	<rect x="261" y="23" style="fill:#FFFFFF;" width="15" height="15"/>
</g>
<g>
	<rect x="244.4" y="369" style="fill:#1D1D1F;" width="15" height="73.67"/>
	<path style="fill:#1D1D1F;" d="M230.204,331.21c2.38-4.616,3.639-9.815,3.639-15.038c0-18.11-14.733-32.844-32.844-32.844
		c-2.962,0-5.899,0.396-8.732,1.175l3.98,14.462c1.536-0.423,3.136-0.637,4.752-0.637c9.839,0,17.844,8.005,17.844,17.844
		c0,2.881-0.663,5.627-1.971,8.162L230.204,331.21z"/>
	<rect x="187.76" y="365" style="fill:#1D1D1F;" width="15" height="52"/>
	<rect x="328.5" y="377.77" style="fill:#1D1D1F;" width="15" height="102.56"/>
	<rect x="328.5" y="327.77" style="fill:#1D1D1F;" width="15" height="15"/>
	<rect x="328.5" y="352.77" style="fill:#1D1D1F;" width="15" height="15"/>
	<rect x="56.709" y="238.33" style="fill:#1D1D1F;" width="15" height="43.33"/>
</g>
<g>
</g>
<g>
</g>
<g>
</g>
<g>
</g>
<g>
</g>
<g>
</g>
<g>
</g>
<g>
</g>
<g>
</g>
<g>
</g>
<g>
</g>
<g>
</g>
<g>
</g>
<g>
</g>
<g>
</g>
</svg>
