<?xml version="1.0" encoding="iso-8859-1"?>
<!-- Generator: Adobe Illustrator 19.0.0, SVG Export Plug-In . SVG Version: 6.00 Build 0)  -->
<svg version="1.1" id="Capa_1" xmlns="http://www.w3.org/2000/svg" xmlns:xlink="http://www.w3.org/1999/xlink" x="0px" y="0px"
	 viewBox="0 0 512 512" style="enable-background:new 0 0 512 512;" xml:space="preserve">
<polygon style="fill:#B3D8F4;" points="320.244,377.151 191.758,377.151 169.612,89.233 248.664,7.5 263.337,7.5 342.391,89.233 "/>
<g>
	<circle style="fill:#78B9EB;" cx="276" cy="140" r="46.33"/>
	<rect x="270" y="259" style="fill:#78B9EB;" width="32" height="32"/>
	<rect x="270" y="317.39" style="fill:#78B9EB;" width="32" height="32"/>
</g>
<g>
	<polygon style="fill:#D7FC7E;" points="190.135,356.047 115.18,356.047 115.18,298.746 183.101,264.61 	"/>
	<polygon style="fill:#D7FC7E;" points="321.867,356.047 396.822,356.047 396.822,298.746 328.901,264.61 	"/>
	<rect x="206.25" y="377.15" style="fill:#D7FC7E;" width="99.5" height="37.515"/>
</g>
<circle style="fill:#57A4FF;" cx="256" cy="140" r="46.33"/>
<rect id="SVGCleanerId_0" x="240" y="259" style="fill:#FFDE55;" width="32" height="32"/>
<rect id="SVGCleanerId_1" x="240" y="317.39" style="fill:#FFDE55;" width="32" height="32"/>
<g>
	<rect id="SVGCleanerId_0_1_" x="240" y="259" style="fill:#FFDE55;" width="32" height="32"/>
</g>
<g>
	<rect id="SVGCleanerId_1_1_" x="240" y="317.39" style="fill:#FFDE55;" width="32" height="32"/>
</g>
<g>
	<rect x="240" y="259" style="fill:#FFD422;" width="15.274" height="32"/>
	<rect x="240" y="317.39" style="fill:#FFD422;" width="15.274" height="32"/>
</g>
<polygon style="fill:#78B9EB;" points="271.001,15.423 263.337,7.5 248.665,7.5 169.612,89.233 191.758,377.151 221.758,377.151 
	199.612,89.233 "/>
<g>
	<polygon style="fill:#C2FB3B;" points="184.218,279.126 183.101,264.61 115.18,298.746 115.18,356.047 145.18,356.047 
		145.18,298.746 	"/>
	<polygon style="fill:#C2FB3B;" points="328.901,264.61 321.867,356.047 351.867,356.047 357.784,279.126 	"/>
	<rect x="206.25" y="377.15" style="fill:#C2FB3B;" width="30" height="37.515"/>
</g>
<path style="fill:#006DF0;" d="M239.668,140c0-20.337,13.109-37.602,31.333-43.837c-4.706-1.61-9.748-2.496-15-2.496
	c-25.589,0-46.333,20.744-46.333,46.333s20.744,46.333,46.333,46.333c5.252,0,10.294-0.886,15-2.496
	C252.776,177.602,239.668,160.337,239.668,140z"/>
<g>
	<rect x="273.421" y="388.41" style="fill:#1D1D1F;" width="15" height="15"/>
	<rect x="248.42" y="388.41" style="fill:#1D1D1F;" width="15" height="15"/>
	<rect x="223.42" y="388.41" style="fill:#1D1D1F;" width="15" height="15"/>
	<polygon style="fill:#1D1D1F;" points="170.211,194.8 185.171,193.65 177.351,92.02 251.841,15 260.15,15 334.65,92.02 
		324.281,226.9 324.271,226.95 339.23,228.1 350.132,86.47 350.132,86.44 266.531,0.02 245.48,0 161.891,86.43 161.871,86.44 
		170.201,194.75 	"/>
	
		<rect x="189.568" y="61.839" transform="matrix(-0.6934 0.7206 -0.7206 -0.6934 423.1751 -41.3928)" style="fill:#1D1D1F;" width="61.652" height="15.001"/>
</g>
<g>
	
		<rect x="294.583" y="254.893" transform="matrix(-0.9971 -0.0767 0.0767 -0.9971 580.2713 622.1651)" style="fill:#FFFFFF;" width="15" height="90.094"/>
	
		<rect x="301.293" y="205.146" transform="matrix(-0.9971 -0.0767 0.0767 -0.9971 600.3672 448.3505)" style="fill:#FFFFFF;" width="15" height="15.001"/>
	
		<rect x="299.379" y="230.072" transform="matrix(-0.9971 -0.0767 0.0767 -0.9971 594.6335 497.9807)" style="fill:#FFFFFF;" width="15" height="15.001"/>
</g>
<g>
	<path style="fill:#1D1D1F;" d="M336.762,260.167l1.319-17.158l0.01-0.05l-14.91-1.15h-0.05l-4.017,52.235l-5.344,69.445v0.051
		l-0.47,6.109H198.7l-0.469-6.103h0.002l-8.512-110.658l-0.001,0.001l-3.41-44.33v-0.05l-14.96,1.15l3.886,50.509l-67.557,33.953
		v69.425h75.511l1.62,21.053l13.943,0.005v37.562h114.5v-37.521l13.937,0.005l1.622-21.1h35.048l0.051-15h-33.945l4.355-56.643
		l1.199-15.577l53.8,27.04v45.18h-10.46l-0.05,14.95l25.51,0.05v-69.43L336.762,260.167z M182.036,348.547H122.68v-45.176
		l53.801-27.039l3.902,50.712L182.036,348.547z M298.254,407.167h-84.5v-22.515h84.5V407.167z"/>
	<rect x="218.67" y="480.5" style="fill:#1D1D1F;" width="15" height="16.595"/>
	<rect x="218.67" y="430.5" style="fill:#1D1D1F;" width="15" height="15"/>
	<rect x="218.67" y="455.5" style="fill:#1D1D1F;" width="15" height="15"/>
	<rect x="278.33" y="430.5" style="fill:#1D1D1F;" width="15" height="16.595"/>
	<rect x="278.33" y="457.1" style="fill:#1D1D1F;" width="15" height="15"/>
	<rect x="278.33" y="482.1" style="fill:#1D1D1F;" width="15" height="15"/>
	<rect x="248.5" y="497" style="fill:#1D1D1F;" width="15" height="15"/>
	<rect x="248.5" y="472" style="fill:#1D1D1F;" width="15" height="15"/>
	<rect x="248.5" y="430.5" style="fill:#1D1D1F;" width="15" height="31.5"/>
	<path style="fill:#1D1D1F;" d="M301.36,169c5.54-8.65,8.471-18.68,8.471-29c0-7.27-1.42-14.32-4.23-20.96
		c-2.71-6.41-6.59-12.16-11.54-17.11c-4.939-4.94-10.7-8.82-17.109-11.53c-6.631-2.81-13.681-4.23-20.95-4.23
		c-7.271,0-14.32,1.42-20.96,4.23c-6.41,2.71-12.16,6.59-17.11,11.53c-4.939,4.95-8.82,10.7-11.53,17.11
		c-2.81,6.64-4.229,13.69-4.229,20.96s1.42,14.32,4.229,20.95c2.71,6.42,6.591,12.17,11.53,17.12c4.95,4.94,10.7,8.82,17.11,11.53
		c6.64,2.81,13.689,4.23,20.96,4.23c2.24,0,4.5-0.14,6.72-0.41l0.05-0.01l-1.85-14.83v-0.05h-0.05c-1.61,0.2-3.25,0.3-4.87,0.3
		c-10.36,0-20.12-4.04-27.46-11.37c-7.33-7.34-11.37-17.1-11.37-27.46c0-10.36,4.04-20.12,11.37-27.46
		c7.35-7.33,17.1-11.37,27.46-11.37c10.359,0,20.12,4.04,27.46,11.37c7.33,7.34,11.37,17.1,11.37,27.46
		c0.01,15.03-8.41,28.44-21.98,35l-0.04,0.02l6.5,13.46l0.021,0.05l0.05-0.02C288.36,184.17,295.961,177.43,301.36,169z"/>
	<path style="fill:#1D1D1F;" d="M283.597,196.095c-8.621,4.25-17.905,6.405-27.596,6.405c-9.409,0-18.449-2.037-26.87-6.053
		l-6.457,13.539c10.453,4.986,21.666,7.514,33.327,7.514c12.011,0,23.526-2.675,34.229-7.951L283.597,196.095z"/>
</g>
<g>
	<path style="fill:#FFFFFF;" d="M245.697,126.687c2.769-2.146,6.081-3.359,9.581-3.506l-0.629-14.986
		c-6.628,0.278-12.902,2.574-18.144,6.639L245.697,126.687z"/>
	<path style="fill:#FFFFFF;" d="M282.516,122.38c-3.676-5.523-8.881-9.702-15.053-12.085l-5.402,13.993
		c3.217,1.242,6.047,3.516,7.967,6.401L282.516,122.38z"/>
	<path style="fill:#FFFFFF;" d="M256.001,171.833c17.553,0,31.833-14.28,31.833-31.833c0-1.861-0.163-3.729-0.483-5.552
		l-14.773,2.603c0.171,0.966,0.257,1.958,0.257,2.949c0,9.282-7.551,16.833-16.833,16.833L256.001,171.833L256.001,171.833z"/>
</g>
<g>
	<path style="fill:#1D1D1F;" d="M279.504,251.5h-47v47h47V251.5z M264.504,283.5h-17v-17h17V283.5z"/>
	<path style="fill:#1D1D1F;" d="M232.504,356.894h47v-47h-47V356.894z M247.504,324.894h17v17h-17V324.894z"/>
	<rect x="130.28" y="328" style="fill:#1D1D1F;" width="44.722" height="15"/>
	<rect x="336.81" y="328" style="fill:#1D1D1F;" width="44.722" height="15"/>
</g>
<g>
</g>
<g>
</g>
<g>
</g>
<g>
</g>
<g>
</g>
<g>
</g>
<g>
</g>
<g>
</g>
<g>
</g>
<g>
</g>
<g>
</g>
<g>
</g>
<g>
</g>
<g>
</g>
<g>
</g>
</svg>
