<?xml version="1.0" encoding="iso-8859-1"?>
<!-- Generator: Adobe Illustrator 19.0.0, SVG Export Plug-In . SVG Version: 6.00 Build 0)  -->
<svg version="1.1" id="Capa_1" xmlns="http://www.w3.org/2000/svg" xmlns:xlink="http://www.w3.org/1999/xlink" x="0px" y="0px"
	 viewBox="0 0 512 512" style="enable-background:new 0 0 512 512;" xml:space="preserve">
<circle style="fill:#B3D8F4;" cx="256" cy="255.99" r="248.5"/>
<g>
	<circle style="fill:#78B9EB;" cx="286" cy="255.99" r="173"/>
	<rect x="259.11" y="27.68" style="fill:#78B9EB;" width="33.781" height="33.781"/>
	<rect x="259.11" y="450.52" style="fill:#78B9EB;" width="33.781" height="33.781"/>
	<rect x="470.53" y="239.1" style="fill:#78B9EB;" width="30.468" height="33.781"/>
	<rect x="47.69" y="239.1" style="fill:#78B9EB;" width="33.781" height="33.781"/>
</g>
<g>
	<rect x="239.11" y="27.68" style="fill:#FFDE55;" width="33.781" height="33.781"/>
	<rect x="239.11" y="450.52" style="fill:#FFDE55;" width="33.781" height="33.781"/>
	<rect x="450.53" y="239.1" style="fill:#FFDE55;" width="33.781" height="33.781"/>
	<rect x="27.69" y="239.1" style="fill:#FFDE55;" width="33.781" height="33.781"/>
</g>
<circle style="fill:#57A4FF;" cx="256" cy="255.99" r="173"/>
<g>
	<rect x="239.11" y="27.68" style="fill:#FFD422;" width="16.891" height="33.781"/>
	<rect x="239.11" y="450.52" style="fill:#FFD422;" width="16.891" height="33.781"/>
	<rect x="450.53" y="239.1" style="fill:#FFD422;" width="16.89" height="33.781"/>
	<rect x="27.69" y="239.1" style="fill:#FFD422;" width="16.89" height="33.781"/>
</g>
<path style="fill:#006DF0;" d="M113,255.99c0-90.49,69.48-164.741,158-172.345c-4.945-0.425-9.945-0.655-15-0.655
	c-95.545,0-173,77.455-173,173s77.455,173,173,173c5.055,0,10.055-0.23,15-0.655C182.48,420.731,113,346.481,113,255.99z"/>
<g>
	<path style="fill:#1D1D1F;" d="M280.391,20.18H231.61v48.78h48.781V20.18z M265.391,53.961H246.61V35.18h18.781V53.961z"/>
	<path style="fill:#1D1D1F;" d="M231.61,491.799h48.781v-48.78H231.61V491.799z M246.61,458.019h18.781v18.78H246.61V458.019z"/>
	<path style="fill:#1D1D1F;" d="M443.029,280.38h48.78v-48.781h-48.78V280.38z M458.029,246.599h18.78v18.781h-18.78V246.599z"/>
	<path style="fill:#1D1D1F;" d="M20.19,280.38h48.781v-48.781H20.19V280.38z M35.19,246.599h18.781v18.781H35.19V246.599z"/>
	<path style="fill:#1D1D1F;" d="M149.25,110.42c-14.98,11-28.13,24.19-39.09,39.19c-11.08,15.17-19.69,31.88-25.56,49.649h-0.02
		l14.23,4.79l0.02-0.04c2.319-7.014,5.079-13.786,8.231-20.299l63.303,0.01c-4.492,20.25-7.062,42.145-7.529,64.769h-72.15
		c0.465-10.37,1.875-20.664,4.245-30.69l0.01-0.05l-14.55-3.44l-0.05-0.01l-0.01,0.05c-3.21,13.57-4.83,27.58-4.83,41.641
		c0,24.37,4.77,48.01,14.19,70.26c4.52,10.69,10.12,21.01,16.64,30.66c6.46,9.56,13.87,18.54,22.04,26.71
		c8.17,8.17,17.15,15.58,26.71,22.04c9.65,6.52,19.97,12.12,30.66,16.64c22.25,9.42,45.89,14.19,70.26,14.19
		s48.01-4.771,70.26-14.19c10.7-4.52,21.01-10.12,30.66-16.64c9.56-6.46,18.54-13.87,26.71-22.04s15.58-17.15,22.04-26.71
		c6.52-9.65,12.12-19.97,16.64-30.66c9.42-22.25,14.19-45.89,14.19-70.26c0-8.49-0.6-17.03-1.77-25.38l-0.01-0.051l-14.8,2.08
		l-0.13,0.021l0.09,0.06c0.734,5.202,1.197,10.48,1.433,15.771h-72.148c-0.466-22.614-3.034-44.499-7.523-64.741l63.406,0.01
		c5.251,10.928,9.38,22.582,12.212,34.84l0.01,0.051l14.57-3.36l0.05-0.01l-0.01-0.05c-4.56-19.74-12.38-38.45-23.23-55.62
		c-10.67-16.851-23.96-31.75-39.52-44.271c-15.69-12.64-33.22-22.49-52.11-29.27c-19.53-7.021-40.06-10.58-61.02-10.58
		c-19.55,0-38.77,3.109-57.14,9.229C181.09,90.65,164.4,99.299,149.25,110.42z M115.27,168.759
		c21.927-35.451,56.451-61.247,96.512-72.298c-8.507,8.741-16.307,20.093-23.135,33.868c-5.76,11.621-10.626,24.544-14.531,38.43
		H115.27z M248.5,168.759h-58.772c3.433-11.429,7.565-22.096,12.359-31.769c12.986-26.198,29.241-42.111,46.413-45.714
		L248.5,168.759L248.5,168.759z M263.5,91.276c17.173,3.603,33.428,19.516,46.413,45.714c4.794,9.673,8.926,20.339,12.359,31.769
		H263.5V91.276z M185.735,183.723l62.765,0.01v64.757h-70.663C178.324,225.717,181.025,203.785,185.735,183.723z M326.274,328.219
		H263.5v-64.753l70.663,0.01C333.677,286.24,330.98,308.163,326.274,328.219z M349.165,263.478l72.162,0.01
		c-1.009,22.761-6.607,44.692-16.342,64.73h-63.34C346.132,307.977,348.699,286.091,349.165,263.478z M248.5,420.703
		c-17.173-3.603-33.428-19.516-46.413-45.714c-4.799-9.683-8.935-20.362-12.37-31.805l58.783,0.01L248.5,420.703L248.5,420.703z
		 M263.5,420.703v-77.508l58.777,0.01c-3.434,11.435-7.568,22.107-12.364,31.784C296.928,401.187,280.673,417.1,263.5,420.703z
		 M248.5,328.219h-62.774c-4.707-20.063-7.404-41.994-7.889-64.766l70.664,0.01v64.756H248.5z M90.672,263.441l72.163,0.01
		c0.464,22.623,3.031,44.517,7.521,64.768h-63.34C97.273,308.167,91.675,286.22,90.672,263.441z M138.97,373.019
		c-9.127-9.133-17.048-19.149-23.702-29.848l58.838,0.01c3.907,13.901,8.777,26.837,14.542,38.469
		c6.837,13.794,14.65,25.159,23.17,33.905C184.537,408.045,159.529,393.565,138.97,373.019z M373.03,373.019
		c-20.559,20.546-45.567,35.026-72.848,42.536c8.52-8.746,16.333-20.111,23.17-33.905c5.762-11.624,10.629-24.552,14.535-38.442
		l58.816,0.01C390.055,353.899,382.144,363.899,373.03,373.019z M334.163,248.49H263.5v-64.754l62.771,0.01
		C330.977,203.802,333.676,225.725,334.163,248.49z M396.861,168.759h-58.977c-3.905-13.886-8.772-26.809-14.531-38.43
		c-6.851-13.823-14.683-25.207-23.224-33.96C340.553,107.394,375.049,133.314,396.861,168.759z"/>
	<path style="fill:#1D1D1F;" d="M118.779,272.248l-14.898,1.746c2.04,17.41,7.013,34.192,14.782,49.882l13.442-6.656
		C125.101,303.076,120.618,287.945,118.779,272.248z"/>
	<path style="fill:#1D1D1F;" d="M393.214,239.672l14.897-1.752c-2.055-17.473-7.063-34.311-14.887-50.044l-13.431,6.68
		C386.846,208.739,391.361,223.919,393.214,239.672z"/>
	<path style="fill:#1D1D1F;" d="M330.88,485.129c-24.1,7.87-49.29,11.86-74.88,11.86c-64.36,0-124.88-25.07-170.41-70.59
		C40.07,380.87,15,320.349,15,255.99c0-5.471,0.19-11,0.55-16.46l0.01-0.05l-14.92-1l-0.05-0.011v0.05
		C0.2,244.299,0,250.17,0,255.99c0,17.37,1.75,34.729,5.2,51.59c3.37,16.439,8.39,32.61,14.92,48.06
		c6.42,15.17,14.36,29.801,23.6,43.48c9.16,13.56,19.68,26.3,31.26,37.89c11.59,11.58,24.33,22.101,37.89,31.26
		c13.68,9.24,28.31,17.181,43.48,23.601c15.45,6.53,31.62,11.55,48.06,14.92c16.86,3.45,34.22,5.2,51.59,5.2h0.02
		c27.17,0,53.92-4.24,79.51-12.601l0.05-0.01l-4.66-14.26L330.88,485.129z"/>
	<path style="fill:#1D1D1F;" d="M16.96,225.11l0.01-0.051C29.42,127.73,101.75,46.24,196.95,22.269l0.05-0.01l-3.66-14.55
		l-0.05,0.021c-24.85,6.26-48.57,16.22-70.5,29.6c-21.54,13.15-41,29.39-57.84,48.26c-16.91,18.95-30.87,40.2-41.48,63.18
		c-10.88,23.56-18.08,48.59-21.38,74.39l-0.01,0.05l14.83,1.89L16.96,225.11z"/>
	<path style="fill:#1D1D1F;" d="M506.8,204.4c-3.37-16.44-8.38-32.61-14.92-48.061c-6.42-15.17-14.36-29.8-23.6-43.479
		c-9.16-13.561-19.68-26.311-31.26-37.891c-11.59-11.58-24.33-22.1-37.89-31.26c-13.68-9.24-28.31-17.19-43.48-23.6
		c-15.45-6.54-31.62-11.561-48.06-14.92c-32.4-6.631-66.68-6.9-99.21-0.78l-0.05,0.01l2.77,14.74l0.05-0.01
		c14.7-2.761,29.79-4.16,44.85-4.16c64.37,0,124.89,25.069,170.41,70.59C471.93,131.099,497,191.62,497,255.99
		c0.01,99.58-59.83,187.59-152.45,224.21l-0.05,0.02l5.52,13.95l0.05-0.02c23.49-9.28,45.47-22.011,65.31-37.811
		c19.67-15.67,36.91-34.1,51.22-54.76c14.5-20.94,25.75-43.82,33.43-68.01c7.94-25,11.97-51.101,11.97-77.58
		C512,238.62,510.25,221.259,506.8,204.4z"/>
	<path style="fill:#1D1D1F;" d="M87.979,115.643c-18.191,21.757-31.795,46.411-40.433,73.279l14.28,4.592
		c8.043-25.021,20.714-47.982,37.66-68.25L87.979,115.643z"/>
	<path style="fill:#1D1D1F;" d="M91.336,376.301c-2.838-3.879-5.572-7.904-8.125-11.966l-12.7,7.98
		c2.74,4.36,5.673,8.682,8.72,12.845L91.336,376.301z"/>
	<path style="fill:#1D1D1F;" d="M106.69,394.879c-3.271-3.516-6.459-7.193-9.475-10.931l-11.674,9.42
		c3.237,4.011,6.658,7.957,10.168,11.729L106.69,394.879z"/>
	<path style="fill:#1D1D1F;" d="M124.118,411.527c-3.667-3.111-7.264-6.39-10.691-9.743l-10.491,10.721
		c3.679,3.601,7.541,7.119,11.476,10.46L124.118,411.527z"/>
	<path style="fill:#1D1D1F;" d="M143.381,426.017c-4-2.655-7.958-5.488-11.762-8.422l-9.159,11.879
		c4.084,3.148,8.332,6.19,12.625,9.041L143.381,426.017z"/>
	<path style="fill:#1D1D1F;" d="M166.804,455.972c4.708,2.104,9.554,4.063,14.404,5.826l5.124-14.098
		c-4.515-1.641-9.026-3.466-13.409-5.424L166.804,455.972z"/>
	<path style="fill:#1D1D1F;" d="M143.844,444.034c4.427,2.646,9.005,5.166,13.609,7.491l6.761-13.391
		c-4.287-2.164-8.551-4.511-12.672-6.976L143.844,444.034z"/>
	<path style="fill:#1D1D1F;" d="M78.276,356.052c-2.361-4.185-4.599-8.503-6.653-12.836l-13.555,6.424
		c2.205,4.653,4.609,9.291,7.144,13.783L78.276,356.052z"/>
	<path style="fill:#1D1D1F;" d="M324.237,448.215l5.019,14.135c42.222-14.989,78.417-42.232,104.67-78.785l-12.184-8.75
		C397.281,408.872,363.564,434.254,324.237,448.215z"/>
</g>
<g>
	<path style="fill:#FFFFFF;" d="M348.973,57.738l-6.377,13.578c4.34,2.038,8.668,4.263,12.865,6.611l7.327-13.088
		C358.282,62.316,353.634,59.927,348.973,57.738z"/>
	<path style="fill:#FFFFFF;" d="M371.703,70.11l-7.938,12.727c43.489,27.126,74.984,69.124,88.683,118.26l14.449-4.029
		C452.188,144.312,418.38,99.224,371.703,70.11z"/>
	<path style="fill:#FFFFFF;" d="M324.932,48.145l-4.72,14.238c4.554,1.51,9.115,3.204,13.558,5.038l5.723-13.865
		C334.722,51.587,329.822,49.766,324.932,48.145z"/>
</g>
<g>
	<path style="fill:#1D1D1F;" d="M192.246,192.962c-2.617,13.626-4.363,28.066-5.19,42.919l14.977,0.834
		c0.79-14.186,2.454-27.954,4.944-40.925L192.246,192.962z"/>
	<rect x="280.57" y="270.99" style="fill:#1D1D1F;" width="42" height="15"/>
</g>
<g>
</g>
<g>
</g>
<g>
</g>
<g>
</g>
<g>
</g>
<g>
</g>
<g>
</g>
<g>
</g>
<g>
</g>
<g>
</g>
<g>
</g>
<g>
</g>
<g>
</g>
<g>
</g>
<g>
</g>
</svg>
